<?xml version="1.0" encoding="iso-8859-1"?>
<!-- Generator: Adobe Illustrator 19.0.0, SVG Export Plug-In . SVG Version: 6.00 Build 0)  -->
<svg xmlns="http://www.w3.org/2000/svg" xmlns:xlink="http://www.w3.org/1999/xlink" version="1.1" id="Capa_1" x="0px" y="0px" viewBox="0 0 512 512" style="enable-background:new 0 0 512 512;" xml:space="preserve" width="512px" height="512px">
<g>
	<g>
		<path d="M469.333,0H42.667C19.2,0,0,19.2,0,42.667v426.667C0,492.8,19.2,512,42.667,512h426.667C492.8,512,512,492.8,512,469.333    V42.667C512,19.2,492.8,0,469.333,0z M170.667,469.333c-12.8,0-21.333-8.533-21.333-21.333c0-12.8,8.533-21.333,21.333-21.333    S192,435.2,192,448C192,460.8,183.467,469.333,170.667,469.333z M256,469.333c-12.8,0-21.333-8.533-21.333-21.333    c0-12.8,8.533-21.333,21.333-21.333S277.333,435.2,277.333,448C277.333,460.8,268.8,469.333,256,469.333z M341.333,469.333    C328.533,469.333,320,460.8,320,448c0-12.8,8.533-21.333,21.333-21.333c12.8,0,21.333,8.533,21.333,21.333    C362.667,460.8,354.133,469.333,341.333,469.333z M426.667,384H85.333C72.533,384,64,375.467,64,362.667V256h85.333    c6.4,0,10.667-2.133,14.933-6.4l19.2-19.2l29.867,76.8c8.533,14.933,29.867,14.933,38.4,0l46.933-106.667l21.333,44.8    c4.267,8.533,10.667,12.8,19.2,12.8h106.667L448,362.667C448,375.467,439.467,384,426.667,384z M448,213.333h-93.867    L317.867,140.8c-8.533-14.933-32-14.933-38.4,2.133l-42.667,102.4l-25.6-61.867c-6.4-12.8-23.467-17.067-34.133-6.4L140.8,213.333    H64v-128C64,72.533,72.533,64,85.333,64h341.333C439.467,64,448,72.533,448,85.333V213.333z" fill="#FFFFFF"/>
	</g>
</g>
<g>
</g>
<g>
</g>
<g>
</g>
<g>
</g>
<g>
</g>
<g>
</g>
<g>
</g>
<g>
</g>
<g>
</g>
<g>
</g>
<g>
</g>
<g>
</g>
<g>
</g>
<g>
</g>
<g>
</g>
</svg>
